<?xml version="1.0" encoding="utf-8"?>
<!-- Generator: Adobe Illustrator 16.0.4, SVG Export Plug-In . SVG Version: 6.00 Build 0)  -->
<!DOCTYPE svg PUBLIC "-//W3C//DTD SVG 1.1//EN" "http://www.w3.org/Graphics/SVG/1.1/DTD/svg11.dtd">
<svg version="1.1" id="Layer_1" xmlns="http://www.w3.org/2000/svg" xmlns:xlink="http://www.w3.org/1999/xlink" x="0px" y="0px"
	 width="474.936px" height="612px" viewBox="0 0 474.936 612" enable-background="new 0 0 474.936 612" xml:space="preserve">
<g>
	<path fill="#9C947A" d="M215.152,484.592c28.248-18.582,50.192-45.796,59.33-83.169h-15.849
		c-9.82,27.1-29.414,44.085-53.982,53.144c-6.267-22.293-9.627-45.804-9.627-70.102c0-52.291,15.537-100.95,42.226-141.637h-32.608
		c-25.593,35.745-43.021,77.73-49.573,123.23c-18.178-11.342-32.378-25.863-40.859-49.424H97.126
		c9.89,36.557,28.992,61.812,55.183,81.543c-0.08,2.769-0.135,5.544-0.135,8.332c0,71.525,26.691,136.808,70.639,186.465h77.847
		C263.182,565.434,233.416,528.025,215.152,484.592z"/>
	<path fill="#86B940" d="M390.429,278.48v68.678h68.678V278.48H390.429z M436.214,324.266h-22.893v-22.893h22.893V324.266z"/>
	<path fill="#BBB8B1" d="M306.488,125.862v129.726h129.726V125.862H306.488z M405.69,225.064h-68.679v-68.679h68.679V225.064z"/>
	<path fill="#BBB8B1" d="M230.179,278.48v137.356h137.356V278.48H230.179z M337.012,385.313h-76.31v-76.31h76.31V385.313z"/>
	<path fill="#9C947A" d="M176.762,148.754v106.833h106.833V148.754H176.762z M260.702,232.695h-61.047v-61.047h61.047V232.695z"/>
	<path fill="#BBB8B1" d="M69.929,87.707v83.94h83.94v-83.94H69.929z M130.977,148.754H92.822V110.6h38.155V148.754z"/>
	<path fill="#86B940" d="M176.762,19.025v106.833h106.833V19.025H176.762z M260.702,102.966h-61.047V41.918h61.047V102.966z"/>
	<path fill="#86B940" d="M16.513,194.54v137.356h137.356V194.54H16.513z M123.346,301.373H47.037v-76.309h76.309V301.373z"/>
</g>
</svg>
